Coordinates
version=1
nRows=18
nColumns=32
inDegrees=yes

Units are S.I. units (second, meters, Newtons, ...)
If the header above contains a line with 'inDegrees', this indicates whether rotational values are in degrees (yes) or radians (no).

endheader
time	pelvis_tilt	pelvis_list	pelvis_rotation	pelvis_tx	pelvis_ty	pelvis_tz	hip_flexion_r	hip_adduction_r	hip_rotation_r	knee_angle_r	knee_adduction_r	med_cond_adduction_r	lat_cond_adduction_r	patella_r_constrained_knee_angle	ankle_angle_r	subtalar_angle_r	mtp_angle_r	hip_flexion_l	hip_adduction_l	hip_rotation_l	knee_angle_l	knee_adduction_l	med_cond_adduction_l	lat_cond_adduction_l	patella_l_constrained_knee_angle	ankle_angle_l	subtalar_angle_l	mtp_angle_l	lumbar_extension	lumbar_bending	lumbar_rotation
      0.34000000	      6.29622028	     -2.83411656	      0.36468481	     -0.12643979	      0.94859033	      0.22837864	     -4.19984726	      2.33107211	     -9.13327240	     -7.87029004	      3.08079006	      0.00000000	      0.00000000	     -0.13736247	     -1.40219020	     -5.33163401	     -0.00000000	     16.62326089	    -13.01174861	    -16.98507408	    -69.89496300	     -5.02253643	      0.00000000	      0.00000000	     -1.21989723	     -5.09280482	      1.39910061	      0.00000000	     -7.07515819	      5.63911294	     -4.08838406
      0.34500000	      6.31728945	     -2.71555433	      0.12352661	     -0.12024237	      0.94901996	      0.22879388	     -4.93679457	      2.17900598	     -8.98178246	     -7.32263170	      3.20194936	     -0.00000000	     -0.00000000	     -0.12780403	     -1.38808013	     -5.27797005	     -0.00000000	     17.12092727	    -12.91582299	    -16.60956656	    -69.04603437	     -4.20796343	     -0.00000000	     -0.00000000	     -1.20508064	     -4.51488430	      1.57643339	      0.00000000	     -7.14818274	      5.35236273	     -4.04465246
      0.35000000	      6.28529954	     -2.71620120	      0.03366467	     -0.11403939	      0.94918615	      0.22886766	     -5.57885311	      2.14224599	     -9.07317935	     -6.86742605	      3.31432244	      0.00000000	      0.00000000	     -0.11985920	     -1.30538251	     -5.04971729	     -0.00000000	     17.73858529	    -12.91346147	    -15.99879125	    -68.21418312	     -3.32645501	     -0.00000000	     -0.00000000	     -1.19056209	     -3.94816880	      1.69571796	      0.00000000	     -7.13157933	      5.35168114	     -3.97325062
      0.35500000	      6.28858989	     -2.68503341	     -0.14153612	     -0.10784714	      0.94939146	      0.22918193	     -6.27735368	      2.08350539	     -8.98840359	     -6.35945727	      3.43264788	     -0.00000000	     -0.00000000	     -0.11099347	     -1.27271512	     -4.98875107	      0.00000000	     18.23303556	    -12.92196397	    -15.51458852	    -67.25629664	     -2.45015233	      0.00000000	      0.00000000	     -1.17384382	     -3.44842018	      1.83523283	     -0.00000000	     -7.17517171	      5.23087498	     -3.89756668
      0.36000000	      6.32980888	     -2.52973485	     -0.25909158	     -0.10163905	      0.94966614	      0.22925564	     -7.00953408	      1.83750410	     -9.03993701	     -5.89721430	      3.60838300	      0.00000000	      0.00000000	     -0.10292581	     -1.20811616	     -4.81466418	     -0.00000000	     18.64438037	    -12.70552951	    -15.10866452	    -66.16014637	     -1.71404977	     -0.00000000	     -0.00000000	     -1.15471239	     -3.00623741	      1.88747456	     -0.00000000	     -7.25702609	      4.83984015	     -4.13153111
      0.36500000	      6.33785941	     -2.44463644	     -0.37190722	     -0.09544041	      0.94976724	      0.22941180	     -7.65726054	      1.68787646	     -9.11927885	     -5.52658611	      3.75022134	      0.00000000	      0.00000000	     -0.09645712	     -1.06347288	     -4.59900356	      0.00000000	     19.07926227	    -12.58875835	    -14.66947357	    -65.01997377	     -0.95907339	     -0.00000000	     -0.00000000	     -1.13481262	     -2.60597085	      1.94213042	     -0.00000000	     -7.29985221	      4.68436465	     -4.07199602
      0.37000000	      6.33192531	     -2.43892197	     -0.71400197	     -0.08919655	      0.94982465	      0.23017682	     -8.35692809	      1.70408843	     -8.68882585	     -4.95041530	      3.78107727	     -0.00000000	     -0.00000000	     -0.08640105	     -1.14466633	     -4.80661162	     -0.00000000	     19.41301590	    -12.71418825	    -14.50376237	    -63.80356788	     -0.20890154	      0.00000000	      0.00000000	     -1.11358233	     -2.19478822	      2.10239138	     -0.00000000	     -7.33773387	      4.54355387	     -3.82559518
      0.37500000	      6.42889837	     -2.29869521	     -1.11551160	     -0.08297996	      0.95006026	      0.23109417	     -9.11303054	      1.52921487	     -8.33000249	     -4.49825099	      3.83936522	      0.00000000	      0.00000000	     -0.07850929	     -1.11077966	     -4.80752557	      0.00000000	     19.53405394	    -12.68510529	    -14.50345788	    -62.41283275	      0.46283434	     -0.00000000	      0.00000000	     -1.08930943	     -1.88813717	      2.20929124	      0.00000000	     -7.51533824	      4.52494055	     -2.96968559
      0.38000000	      6.35224915	     -2.42357821	     -1.11063194	     -0.07675341	      0.94969694	      0.23097596	     -9.65393297	      1.63117388	     -8.47641057	     -4.16179655	      3.93010088	      0.00000000	      0.00000000	     -0.07263705	     -0.96925577	     -4.60095190	     -0.00000000	     20.06497064	    -12.77202568	    -14.00136465	    -61.19664219	      1.10755456	     -0.00000000	     -0.00000000	     -1.06808290	     -1.48747749	      2.25256843	      0.00000000	     -7.43297134	      4.33406827	     -3.59216012
      0.38500000	      6.43304357	     -2.32832622	     -1.26636712	     -0.07048145	      0.94970465	      0.23130086	    -10.35380911	      1.47332739	     -8.52335425	     -3.84082725	      4.02024483	      0.00000000	      0.00000000	     -0.06703508	     -0.84123483	     -4.30992372	     -0.00000000	     20.24384785	    -12.65021559	    -13.93937359	    -59.73148376	      1.55012312	     -0.00000000	     -0.00000000	     -1.04251106	     -1.15929322	      2.27679029	     -0.00000000	     -7.55363935	      4.19724601	     -3.35879083
      0.39000000	      6.45987623	     -2.20420462	     -1.51029773	     -0.06417774	      0.94961150	      0.23173338	    -11.00647629	      1.25730375	     -8.41052771	     -3.48215204	      4.16082687	      0.00000000	      0.00000000	     -0.06077502	     -0.71254448	     -4.19445743	     -0.00000000	     20.41088692	    -12.49962693	    -14.01886374	    -58.15228332	      1.90665161	     -0.00000000	     -0.00000000	     -1.01494881	     -0.97689847	      2.37761245	     -0.00000000	     -7.62310112	      3.91857981	     -3.24714402
      0.39500000	      6.50769666	     -2.11992523	     -1.97020302	     -0.05790031	      0.94949964	      0.23277250	    -11.76453009	      1.15877615	     -7.72838890	     -2.88599851	      4.17540270	      0.00000000	      0.00000000	     -0.05037018	     -0.81405016	     -4.65460600	      0.00000000	     20.44440313	    -12.52178029	    -14.35988984	    -56.50744693	      2.22405675	     -0.00000000	     -0.00000000	     -0.98624100	     -0.63481472	      2.57097136	      0.00000000	     -7.72739321	      3.70601572	     -2.80181540
      0.40000000	      6.48611343	     -2.21798041	     -2.16131604	     -0.05165990	      0.94908681	      0.23317451	    -12.26915445	      1.23014258	     -7.71272451	     -2.73036299	      4.18099701	     -0.00000000	     -0.00000000	     -0.04765382	     -0.54327425	     -4.30650020	      0.00000000	     20.68153260	    -12.64128927	    -14.38206372	    -54.94692540	      2.55321005	      0.00000000	      0.00000000	     -0.95900476	     -0.37484247	      2.69076131	      0.00000000	     -7.75346956	      3.65479051	     -2.76356139
      0.40500000	      6.52987593	     -2.15055176	     -2.59638636	     -0.04537572	      0.94886611	      0.23414370	    -12.96711851	      1.12162538	     -7.14865223	     -2.26429382	      4.19072920	     -0.00000000	     -0.00000000	     -0.03951938	     -0.52497508	     -4.54441449	      0.00000000	     20.66262164	    -12.65217740	    -14.89109053	    -53.17043554	      2.68508895	     -0.00000000	     -0.00000000	     -0.92799916	     -0.18963695	      2.91964971	     -0.00000000	     -7.85460464	      3.36187268	     -2.48685405
      0.41000000	      6.54002355	     -2.13885797	     -2.70379401	     -0.03907982	      0.94837471	      0.23424374	    -13.49610035	      1.01483596	     -7.32521344	     -2.15316412	      4.28555549	     -0.00000000	     -0.00000000	     -0.03757980	     -0.21122812	     -4.08548159	     -0.00000000	     20.81988342	    -12.51459081	    -15.10143862	    -51.44743831	      2.68422639	     -0.00000000	     -0.00000000	     -0.89792719	      0.05098007	      3.04259257	      0.00000000	     -7.90059916	      3.31097484	     -2.37425996
      0.41500000	      6.54036579	     -2.16355421	     -2.99229522	     -0.03279178	      0.94786324	      0.23481357	    -14.07238658	      0.98184025	     -7.07849548	     -1.87664044	      4.30605078	     -0.00000000	     -0.00000000	     -0.03275355	     -0.04893088	     -3.99755560	      0.00000000	     20.88323887	    -12.52308221	    -15.55150147	    -49.64636092	      2.66141633	     -0.00000000	     -0.00000000	     -0.86649246	      0.26133955	      3.27598869	     -0.00000000	     -7.95223604	      3.27059322	     -2.06284793
      0.42000000	      6.54230711	     -2.16303010	     -3.25843285	     -0.02650868	      0.94731313	      0.23528926	    -14.64803988	      0.90529847	     -6.84311310	     -1.60382679	      4.35358079	      0.00000000	      0.00000000	     -0.02799206	      0.10348570	     -3.95337355	      0.00000000	     20.92264634	    -12.45605299	    -16.07483495	    -47.76946170	      2.51858341	     -0.00000000	     -0.00000000	     -0.83373439	      0.43615294	      3.53709687	     -0.00000000	     -7.99881888	      3.10812459	     -1.94324599
      0.42500000	      6.49996539	     -2.22853133	     -3.49485383	     -0.02022948	      0.94658250	      0.23570241	    -15.16892060	      0.91654943	     -6.64505624	     -1.34970946	      4.36770545	      0.00000000	     -0.00000000	     -0.02355687	      0.26322086	     -3.86078862	      0.00000000	     21.01956570	    -12.45451650	    -16.59206166	    -45.90037949	      2.34183424	      0.00000000	     -0.00000000	     -0.80111275	      0.59871915	      3.83427165	      0.00000000	     -8.00194823	      3.07027057	     -1.79422903
